<mxfile host="app.diagrams.net" agent="Mozilla/5.0 (Macintosh; Intel Mac OS X 10.15; rv:141.0) Gecko/20100101 Firefox/141.0" version="28.0.7">
  <diagram name="Page-1" id="pGUBPB7YpV5QTHI0yR4i">
    <mxGraphModel dx="2372" dy="1404" grid="1" gridSize="10" guides="1" tooltips="1" connect="1" arrows="1" fold="1" page="1" pageScale="1" pageWidth="827" pageHeight="1169" math="0" shadow="0">
      <root>
        <mxCell id="0" />
        <mxCell id="1" parent="0" />
        <mxCell id="REIp23zdgp6MgKpOmg6P-1" value="Moi" style="rounded=1;whiteSpace=wrap;html=1;" vertex="1" parent="1">
          <mxGeometry x="260" y="340" width="120" height="60" as="geometry" />
        </mxCell>
        <mxCell id="REIp23zdgp6MgKpOmg6P-2" value="Thanya" style="rounded=1;whiteSpace=wrap;html=1;" vertex="1" parent="1">
          <mxGeometry x="400" y="340" width="120" height="60" as="geometry" />
        </mxCell>
        <mxCell id="REIp23zdgp6MgKpOmg6P-4" value="Ilyane" style="rounded=1;whiteSpace=wrap;html=1;" vertex="1" parent="1">
          <mxGeometry x="540" y="340" width="120" height="60" as="geometry" />
        </mxCell>
        <mxCell id="REIp23zdgp6MgKpOmg6P-5" value="Maman (Nabila)" style="whiteSpace=wrap;html=1;rounded=1;" vertex="1" parent="1">
          <mxGeometry x="330" y="220" width="120" height="60" as="geometry" />
        </mxCell>
        <mxCell id="REIp23zdgp6MgKpOmg6P-7" value="Papa (Ghanem)" style="whiteSpace=wrap;html=1;rounded=1;" vertex="1" parent="1">
          <mxGeometry x="470" y="220" width="120" height="60" as="geometry" />
        </mxCell>
        <mxCell id="REIp23zdgp6MgKpOmg6P-8" value="" style="endArrow=none;html=1;rounded=0;exitX=1;exitY=0.5;exitDx=0;exitDy=0;entryX=0;entryY=0.5;entryDx=0;entryDy=0;" edge="1" parent="1" source="REIp23zdgp6MgKpOmg6P-5" target="REIp23zdgp6MgKpOmg6P-7">
          <mxGeometry width="50" height="50" relative="1" as="geometry">
            <mxPoint x="440" y="380" as="sourcePoint" />
            <mxPoint x="510" y="310" as="targetPoint" />
          </mxGeometry>
        </mxCell>
        <mxCell id="REIp23zdgp6MgKpOmg6P-9" value="" style="endArrow=none;html=1;rounded=0;exitX=0.5;exitY=0;exitDx=0;exitDy=0;" edge="1" parent="1" source="REIp23zdgp6MgKpOmg6P-2">
          <mxGeometry width="50" height="50" relative="1" as="geometry">
            <mxPoint x="440" y="380" as="sourcePoint" />
            <mxPoint x="460" y="250" as="targetPoint" />
          </mxGeometry>
        </mxCell>
        <mxCell id="REIp23zdgp6MgKpOmg6P-10" value="" style="endArrow=none;html=1;rounded=0;" edge="1" parent="1">
          <mxGeometry width="50" height="50" relative="1" as="geometry">
            <mxPoint x="320" y="300" as="sourcePoint" />
            <mxPoint x="600" y="300" as="targetPoint" />
          </mxGeometry>
        </mxCell>
        <mxCell id="REIp23zdgp6MgKpOmg6P-11" value="" style="endArrow=none;html=1;rounded=0;exitX=0.5;exitY=0;exitDx=0;exitDy=0;" edge="1" parent="1" source="REIp23zdgp6MgKpOmg6P-1">
          <mxGeometry width="50" height="50" relative="1" as="geometry">
            <mxPoint x="440" y="380" as="sourcePoint" />
            <mxPoint x="320" y="300" as="targetPoint" />
          </mxGeometry>
        </mxCell>
        <mxCell id="REIp23zdgp6MgKpOmg6P-12" value="" style="endArrow=none;html=1;rounded=0;exitX=0.5;exitY=0;exitDx=0;exitDy=0;" edge="1" parent="1">
          <mxGeometry width="50" height="50" relative="1" as="geometry">
            <mxPoint x="599.5" y="340" as="sourcePoint" />
            <mxPoint x="599.5" y="300" as="targetPoint" />
          </mxGeometry>
        </mxCell>
        <mxCell id="REIp23zdgp6MgKpOmg6P-13" value="Yannis" style="rounded=1;whiteSpace=wrap;html=1;" vertex="1" parent="1">
          <mxGeometry x="680" y="340" width="120" height="60" as="geometry" />
        </mxCell>
        <mxCell id="REIp23zdgp6MgKpOmg6P-14" value="Walid" style="rounded=1;whiteSpace=wrap;html=1;" vertex="1" parent="1">
          <mxGeometry x="820" y="340" width="120" height="60" as="geometry" />
        </mxCell>
        <mxCell id="REIp23zdgp6MgKpOmg6P-15" value="Himed" style="rounded=1;whiteSpace=wrap;html=1;" vertex="1" parent="1">
          <mxGeometry x="960" y="340" width="120" height="60" as="geometry" />
        </mxCell>
        <mxCell id="REIp23zdgp6MgKpOmg6P-16" value="Tata Nawal" style="whiteSpace=wrap;html=1;rounded=1;" vertex="1" parent="1">
          <mxGeometry x="750" y="220" width="120" height="60" as="geometry" />
        </mxCell>
        <mxCell id="REIp23zdgp6MgKpOmg6P-17" value="Tonton Adel" style="whiteSpace=wrap;html=1;rounded=1;" vertex="1" parent="1">
          <mxGeometry x="890" y="220" width="120" height="60" as="geometry" />
        </mxCell>
        <mxCell id="REIp23zdgp6MgKpOmg6P-18" value="" style="endArrow=none;html=1;rounded=0;exitX=1;exitY=0.5;exitDx=0;exitDy=0;entryX=0;entryY=0.5;entryDx=0;entryDy=0;" edge="1" source="REIp23zdgp6MgKpOmg6P-16" target="REIp23zdgp6MgKpOmg6P-17" parent="1">
          <mxGeometry width="50" height="50" relative="1" as="geometry">
            <mxPoint x="860" y="380" as="sourcePoint" />
            <mxPoint x="930" y="310" as="targetPoint" />
          </mxGeometry>
        </mxCell>
        <mxCell id="REIp23zdgp6MgKpOmg6P-19" value="" style="endArrow=none;html=1;rounded=0;exitX=0.5;exitY=0;exitDx=0;exitDy=0;" edge="1" source="REIp23zdgp6MgKpOmg6P-14" parent="1">
          <mxGeometry width="50" height="50" relative="1" as="geometry">
            <mxPoint x="860" y="380" as="sourcePoint" />
            <mxPoint x="880" y="250" as="targetPoint" />
          </mxGeometry>
        </mxCell>
        <mxCell id="REIp23zdgp6MgKpOmg6P-20" value="" style="endArrow=none;html=1;rounded=0;" edge="1" parent="1">
          <mxGeometry width="50" height="50" relative="1" as="geometry">
            <mxPoint x="740" y="300" as="sourcePoint" />
            <mxPoint x="1020" y="300" as="targetPoint" />
          </mxGeometry>
        </mxCell>
        <mxCell id="REIp23zdgp6MgKpOmg6P-21" value="" style="endArrow=none;html=1;rounded=0;exitX=0.5;exitY=0;exitDx=0;exitDy=0;" edge="1" source="REIp23zdgp6MgKpOmg6P-13" parent="1">
          <mxGeometry width="50" height="50" relative="1" as="geometry">
            <mxPoint x="860" y="380" as="sourcePoint" />
            <mxPoint x="740" y="300" as="targetPoint" />
          </mxGeometry>
        </mxCell>
        <mxCell id="REIp23zdgp6MgKpOmg6P-22" value="" style="endArrow=none;html=1;rounded=0;exitX=0.5;exitY=0;exitDx=0;exitDy=0;" edge="1" parent="1">
          <mxGeometry width="50" height="50" relative="1" as="geometry">
            <mxPoint x="1019.5" y="340" as="sourcePoint" />
            <mxPoint x="1019.5" y="300" as="targetPoint" />
          </mxGeometry>
        </mxCell>
        <mxCell id="REIp23zdgp6MgKpOmg6P-23" value="Samy" style="rounded=1;whiteSpace=wrap;html=1;" vertex="1" parent="1">
          <mxGeometry x="1100" y="340" width="120" height="60" as="geometry" />
        </mxCell>
        <mxCell id="REIp23zdgp6MgKpOmg6P-24" value="Rayan" style="rounded=1;whiteSpace=wrap;html=1;" vertex="1" parent="1">
          <mxGeometry x="1240" y="340" width="120" height="60" as="geometry" />
        </mxCell>
        <mxCell id="REIp23zdgp6MgKpOmg6P-25" value="Amir" style="rounded=1;whiteSpace=wrap;html=1;" vertex="1" parent="1">
          <mxGeometry x="1380" y="340" width="120" height="60" as="geometry" />
        </mxCell>
        <mxCell id="REIp23zdgp6MgKpOmg6P-26" value="Tata Kiltoum" style="whiteSpace=wrap;html=1;rounded=1;" vertex="1" parent="1">
          <mxGeometry x="1170" y="220" width="120" height="60" as="geometry" />
        </mxCell>
        <mxCell id="REIp23zdgp6MgKpOmg6P-27" value="Tonton Adnane" style="whiteSpace=wrap;html=1;rounded=1;" vertex="1" parent="1">
          <mxGeometry x="1310" y="220" width="120" height="60" as="geometry" />
        </mxCell>
        <mxCell id="REIp23zdgp6MgKpOmg6P-28" value="" style="endArrow=none;html=1;rounded=0;exitX=1;exitY=0.5;exitDx=0;exitDy=0;entryX=0;entryY=0.5;entryDx=0;entryDy=0;" edge="1" source="REIp23zdgp6MgKpOmg6P-26" target="REIp23zdgp6MgKpOmg6P-27" parent="1">
          <mxGeometry width="50" height="50" relative="1" as="geometry">
            <mxPoint x="1280" y="380" as="sourcePoint" />
            <mxPoint x="1350" y="310" as="targetPoint" />
          </mxGeometry>
        </mxCell>
        <mxCell id="REIp23zdgp6MgKpOmg6P-29" value="" style="endArrow=none;html=1;rounded=0;exitX=0.5;exitY=0;exitDx=0;exitDy=0;" edge="1" source="REIp23zdgp6MgKpOmg6P-24" parent="1">
          <mxGeometry width="50" height="50" relative="1" as="geometry">
            <mxPoint x="1280" y="380" as="sourcePoint" />
            <mxPoint x="1300" y="250" as="targetPoint" />
          </mxGeometry>
        </mxCell>
        <mxCell id="REIp23zdgp6MgKpOmg6P-30" value="" style="endArrow=none;html=1;rounded=0;" edge="1" parent="1">
          <mxGeometry width="50" height="50" relative="1" as="geometry">
            <mxPoint x="1160" y="300" as="sourcePoint" />
            <mxPoint x="1440" y="300" as="targetPoint" />
          </mxGeometry>
        </mxCell>
        <mxCell id="REIp23zdgp6MgKpOmg6P-31" value="" style="endArrow=none;html=1;rounded=0;exitX=0.5;exitY=0;exitDx=0;exitDy=0;" edge="1" source="REIp23zdgp6MgKpOmg6P-23" parent="1">
          <mxGeometry width="50" height="50" relative="1" as="geometry">
            <mxPoint x="1280" y="380" as="sourcePoint" />
            <mxPoint x="1160" y="300" as="targetPoint" />
          </mxGeometry>
        </mxCell>
        <mxCell id="REIp23zdgp6MgKpOmg6P-32" value="" style="endArrow=none;html=1;rounded=0;exitX=0.5;exitY=0;exitDx=0;exitDy=0;" edge="1" parent="1">
          <mxGeometry width="50" height="50" relative="1" as="geometry">
            <mxPoint x="1439.5" y="340" as="sourcePoint" />
            <mxPoint x="1439.5" y="300" as="targetPoint" />
          </mxGeometry>
        </mxCell>
        <mxCell id="REIp23zdgp6MgKpOmg6P-33" value="Mahdi" style="rounded=1;whiteSpace=wrap;html=1;" vertex="1" parent="1">
          <mxGeometry x="1520" y="340" width="120" height="60" as="geometry" />
        </mxCell>
        <mxCell id="REIp23zdgp6MgKpOmg6P-34" value="Maher" style="rounded=1;whiteSpace=wrap;html=1;" vertex="1" parent="1">
          <mxGeometry x="1660" y="340" width="120" height="60" as="geometry" />
        </mxCell>
        <mxCell id="REIp23zdgp6MgKpOmg6P-36" value="Tata Lina" style="whiteSpace=wrap;html=1;rounded=1;" vertex="1" parent="1">
          <mxGeometry x="1590" y="220" width="120" height="60" as="geometry" />
        </mxCell>
        <mxCell id="REIp23zdgp6MgKpOmg6P-39" value="" style="endArrow=none;html=1;rounded=0;" edge="1" parent="1">
          <mxGeometry width="50" height="50" relative="1" as="geometry">
            <mxPoint x="1654" y="300" as="sourcePoint" />
            <mxPoint x="1654" y="280" as="targetPoint" />
            <Array as="points" />
          </mxGeometry>
        </mxCell>
        <mxCell id="REIp23zdgp6MgKpOmg6P-40" value="" style="endArrow=none;html=1;rounded=0;" edge="1" parent="1">
          <mxGeometry width="50" height="50" relative="1" as="geometry">
            <mxPoint x="1580" y="300" as="sourcePoint" />
            <mxPoint x="1720" y="300" as="targetPoint" />
          </mxGeometry>
        </mxCell>
        <mxCell id="REIp23zdgp6MgKpOmg6P-41" value="" style="endArrow=none;html=1;rounded=0;exitX=0.5;exitY=0;exitDx=0;exitDy=0;" edge="1" source="REIp23zdgp6MgKpOmg6P-33" parent="1">
          <mxGeometry width="50" height="50" relative="1" as="geometry">
            <mxPoint x="1700" y="380" as="sourcePoint" />
            <mxPoint x="1580" y="300" as="targetPoint" />
          </mxGeometry>
        </mxCell>
        <mxCell id="REIp23zdgp6MgKpOmg6P-42" value="" style="endArrow=none;html=1;rounded=0;exitX=0.5;exitY=0;exitDx=0;exitDy=0;" edge="1" parent="1">
          <mxGeometry width="50" height="50" relative="1" as="geometry">
            <mxPoint x="1719.6" y="340" as="sourcePoint" />
            <mxPoint x="1719.6" y="300" as="targetPoint" />
          </mxGeometry>
        </mxCell>
        <mxCell id="REIp23zdgp6MgKpOmg6P-43" value="(Tata) Sara" style="whiteSpace=wrap;html=1;rounded=1;" vertex="1" parent="1">
          <mxGeometry x="1800" y="220" width="120" height="60" as="geometry" />
        </mxCell>
        <mxCell id="REIp23zdgp6MgKpOmg6P-44" value="Tonton Samir" style="whiteSpace=wrap;html=1;rounded=1;" vertex="1" parent="1">
          <mxGeometry x="1940" y="220" width="120" height="60" as="geometry" />
        </mxCell>
        <mxCell id="REIp23zdgp6MgKpOmg6P-45" value="" style="endArrow=none;html=1;rounded=0;exitX=1;exitY=0.5;exitDx=0;exitDy=0;entryX=0;entryY=0.5;entryDx=0;entryDy=0;" edge="1" source="REIp23zdgp6MgKpOmg6P-43" target="REIp23zdgp6MgKpOmg6P-44" parent="1">
          <mxGeometry width="50" height="50" relative="1" as="geometry">
            <mxPoint x="1910" y="380" as="sourcePoint" />
            <mxPoint x="1980" y="310" as="targetPoint" />
          </mxGeometry>
        </mxCell>
      </root>
    </mxGraphModel>
  </diagram>
</mxfile>
